<svg width="1024" height="1024" viewBox="0 0 1024 1024" fill="none" xmlns="http://www.w3.org/2000/svg">
<circle cx="512" cy="512" r="512" fill="#0c0c0c"/>
<path d="M416.353 742.084C386.091 742.084 363.215 733.812 347.724 717.268C332.233 700.365 324.488 677.887 324.488 649.835C324.488 634.01 326.829 614.769 331.513 592.111L365.016 437.823C365.737 434.946 367.358 427.033 369.88 414.086C372.762 401.139 374.203 387.113 374.203 372.007C374.203 363.376 372.402 356.902 368.799 352.587C365.557 348.271 361.054 346.113 355.289 346.113C344.482 346.113 331.873 351.328 317.463 361.758C303.052 371.828 287.922 387.472 272.071 408.691C267.027 415.525 261.443 418.941 255.319 418.941C250.275 418.941 245.772 416.604 241.809 411.928C238.207 406.893 236.405 401.319 236.405 395.205C236.405 384.056 241.449 371.468 251.536 357.442C288.282 307.091 331.332 281.916 380.687 281.916C402.663 281.916 419.775 288.569 432.024 301.876C444.633 315.183 450.937 334.784 450.937 360.679C450.937 379.021 449.676 395.924 447.154 411.389C444.633 426.854 440.31 447.893 434.185 474.507L412.03 573.23C411.309 576.467 410.048 582.221 408.247 590.493C406.446 598.765 405.005 606.677 403.924 614.23C402.843 621.422 402.303 628.615 402.303 635.808C402.303 647.317 405.545 656.488 412.03 663.321C418.514 670.155 427.701 673.571 439.589 673.571C461.204 673.571 483 662.063 504.975 639.045C527.311 616.028 547.846 578.984 566.579 527.914C585.673 476.485 600.443 410.849 610.89 331.008C613.412 312.666 617.015 299.898 621.698 292.705C626.742 285.512 636.288 281.916 650.338 281.916C662.947 281.916 672.314 285.692 678.438 293.245C684.562 300.797 687.625 313.025 687.625 329.929C687.625 339.639 686.364 352.407 683.842 368.231C681.68 384.056 678.258 406.174 673.575 434.586C663.848 489.612 656.102 540.142 650.338 586.177C647.456 607.037 646.015 622.501 646.015 632.572C646.015 647.317 649.258 658.646 655.742 666.558C662.587 674.111 671.593 677.887 682.761 677.887C694.65 677.887 706.178 673.931 717.346 666.019C728.874 658.106 742.383 644.979 757.874 626.637C762.197 621.602 767.061 619.085 772.465 619.085C777.148 619.085 780.751 621.243 783.272 625.558C786.154 629.874 787.595 635.808 787.595 643.361C787.595 657.387 784.173 668.536 777.328 676.808C758.595 699.466 740.042 716.01 721.669 726.439C703.296 736.869 684.022 742.084 663.848 742.084C633.947 742.084 611.07 734.531 595.219 719.426C579.368 703.961 571.442 684.001 571.442 659.545C571.442 645.878 574.324 619.265 580.089 579.703C562.076 632.572 539.2 672.852 511.46 700.545C484.081 728.238 452.378 742.084 416.353 742.084Z" fill="white"/>
</svg>
